<svg version="1.1" id="Layer_1" xmlns="http://www.w3.org/2000/svg" xmlns:xlink="http://www.w3.org/1999/xlink" x="0px"
	y="0px" width="100%" viewBox="0 0 150 127" enable-background="new 0 0 150 127" xml:space="preserve">

	<path fill="#FFC893" opacity="1.000000" stroke="none" d="
M93.471130,114.612099 
	C74.765831,122.766899 57.112488,121.423927 40.532784,110.183495 
	C13.720339,92.005623 10.118956,53.504692 32.888439,30.523218 
	C53.935463,9.280246 86.477348,8.748871 107.666313,29.302176 
	C131.003403,51.939144 127.757553,91.396881 101.004387,109.966629 
	C98.686111,111.575783 96.214157,112.963531 93.471130,114.612099 
M100.897232,56.788094 
	C94.339294,40.434528 78.950920,32.033886 63.091087,36.149399 
	C50.293694,39.470238 40.347008,50.339054 39.022686,62.449112 
	C37.377193,77.496056 43.834538,89.806557 57.063564,95.971733 
	C68.583038,101.340195 79.874397,100.405739 89.865891,92.495644 
	C101.213623,83.511818 105.339676,71.748352 100.897232,56.788094 
z" />
	<path fill="#FFFAF6" opacity="1.000000" stroke="none" d="
M101.049057,57.156944 
	C105.339676,71.748352 101.213623,83.511818 89.865891,92.495644 
	C79.874397,100.405739 68.583038,101.340195 57.063564,95.971733 
	C43.834538,89.806557 37.377193,77.496056 39.022686,62.449112 
	C40.347008,50.339054 50.293694,39.470238 63.091087,36.149399 
	C78.950920,32.033886 94.339294,40.434528 101.049057,57.156944 
M47.045551,57.806759 
	C44.219425,64.108421 44.488701,70.475159 47.078487,76.698120 
	C51.173595,86.538208 58.898254,92.020515 69.321701,92.653107 
	C78.735214,93.224396 86.582001,89.067833 91.801582,81.143242 
	C97.510040,72.476418 97.800377,63.186749 92.461166,54.255638 
	C87.138374,45.351967 78.966476,41.179611 68.526009,41.998760 
	C58.496651,42.785656 51.473038,47.930531 47.045551,57.806759 
z" />
	<path fill="#FFCC99" opacity="1.000000" stroke="none" d="
M47.221031,57.461525 
	C51.473038,47.930531 58.496651,42.785656 68.526009,41.998760 
	C78.966476,41.179611 87.138374,45.351967 92.461166,54.255638 
	C97.800377,63.186749 97.510040,72.476418 91.801582,81.143242 
	C86.582001,89.067833 78.735214,93.224396 69.321701,92.653107 
	C58.898254,92.020515 51.173595,86.538208 47.078487,76.698120 
	C44.488701,70.475159 44.219425,64.108421 47.221031,57.461525 
M54.754547,77.552979 
	C61.205986,86.426651 72.981026,88.977417 81.088753,83.257629 
	C90.518188,76.605400 92.524010,65.021408 85.860023,55.702675 
	C79.931709,47.412670 69.514984,45.835796 59.652103,51.642044 
	C52.953831,55.585289 48.692551,67.583755 54.754547,77.552979 
z" />
	<path fill="#FFFAF6" opacity="1.000000" stroke="none" d="
M54.572235,77.222137 
	C48.692551,67.583755 52.953831,55.585289 59.652103,51.642044 
	C69.514984,45.835796 79.931709,47.412670 85.860023,55.702675 
	C92.524010,65.021408 90.518188,76.605400 81.088753,83.257629 
	C72.981026,88.977417 61.205986,86.426651 54.572235,77.222137 
M76.655968,78.525963 
	C78.002953,77.289711 79.494003,76.176224 80.670906,74.795052 
	C84.828705,69.915611 83.594604,61.042812 78.279137,56.910599 
	C73.538170,53.224995 64.750290,54.269714 61.028385,58.961391 
	C57.114971,63.894463 56.877567,69.628288 60.379509,74.633186 
	C63.722198,79.410484 69.200081,80.893768 76.655968,78.525963 
z" />
	<path fill="#FFCB99" opacity="1.000000" stroke="none" d="
M76.304230,78.687973 
	C69.200081,80.893768 63.722198,79.410484 60.379509,74.633186 
	C56.877567,69.628288 57.114971,63.894463 61.028385,58.961391 
	C64.750290,54.269714 73.538170,53.224995 78.279137,56.910599 
	C83.594604,61.042812 84.828705,69.915611 80.670906,74.795052 
	C79.494003,76.176224 78.002953,77.289711 76.304230,78.687973 
M65.643158,63.105412 
	C63.095905,66.599869 63.682308,70.076546 67.069603,72.122826 
	C68.831108,73.186958 72.180122,73.027214 74.131729,72.054878 
	C77.333260,70.459808 78.168671,67.065842 76.143745,63.963997 
	C73.548378,59.988335 69.935692,60.084217 65.643158,63.105412 
z" />
	<path fill="#FFFAF5" opacity="1.000000" stroke="none" d="
M65.921844,62.832382 
	C69.935692,60.084217 73.548378,59.988335 76.143745,63.963997 
	C78.168671,67.065842 77.333260,70.459808 74.131729,72.054878 
	C72.180122,73.027214 68.831108,73.186958 67.069603,72.122826 
	C63.682308,70.076546 63.095905,66.599869 65.921844,62.832382 
z" />
</svg>