<?xml version="1.0" encoding="utf-8"?>
<!-- Generator: Adobe Illustrator 28.3.0, SVG Export Plug-In . SVG Version: 6.00 Build 0)  -->
<svg version="1.1" id="Layer_1" xmlns="http://www.w3.org/2000/svg" xmlns:xlink="http://www.w3.org/1999/xlink" x="0px" y="0px"
	 viewBox="0 0 135.3 127" style="enable-background:new 0 0 135.3 127;" xml:space="preserve">
<style type="text/css">
	.st0{fill:#FFC893;}
	.st1{fill:none;stroke:#FFFFFF;stroke-width:8;stroke-linecap:round;stroke-linejoin:round;}
</style>
<path class="st0" d="M89.4,114.6c-18.7,8.2-36.4,6.8-52.9-4.4C9.7,92,6.1,53.5,28.9,30.5c21-21.2,53.6-21.8,74.8-1.2
	C127,51.9,123.8,91.4,97,110C94.6,111.6,92.2,113,89.4,114.6"/>
<path class="st1" d="M74.4,69.8c0.5-2.7,1.8-4.7,3.9-6.9c2.6-2.5,3.9-6,3.9-9.6c0-9.1-7-16.5-15.7-16.5s-15.7,7.4-15.7,16.5
	c0,2.7,0.5,6,3.9,9.6c1.8,1.9,3.4,4.1,3.9,6.9"/>
<path class="st1" d="M59.1,81.8h15.7"/>
<path class="st1" d="M61.4,93.8h10.5"/>
</svg>
