<svg version="1.1" id="Layer_1" xmlns="http://www.w3.org/2000/svg" xmlns:xlink="http://www.w3.org/1999/xlink" x="0px"
	y="0px" width="100%" viewBox="0 0 163 130" enable-background="new 0 0 163 130" xml:space="preserve">

	<path fill="#FFC892" opacity="1.000000" stroke="none" d="
M82.521965,116.773041 
	C52.000256,117.473732 29.221460,99.033920 25.401951,69.697189 
	C22.529688,47.636036 34.388264,25.484896 56.814487,15.745052 
	C92.447426,0.269451 131.925613,26.683111 130.721848,65.545547 
	C129.924408,91.289597 111.998123,111.626259 86.378212,115.998833 
	C85.233292,116.194229 84.103134,116.476128 82.521965,116.773041 
M69.887451,48.395191 
	C67.321327,52.853157 64.767975,57.318546 62.184727,61.766563 
	C60.371567,64.888596 60.713104,66.838219 64.836021,66.837677 
	C74.307701,66.836441 83.779373,66.840591 93.251053,66.836159 
	C97.421150,66.834206 97.627945,64.795341 95.880104,61.725384 
	C91.530251,54.085182 87.234344,46.413830 82.823242,38.809242 
	C81.809898,37.062283 80.420265,35.533588 78.761063,33.311508 
	C75.591003,38.661285 72.901657,43.199818 69.887451,48.395191 
M86.443962,87.972771 
	C89.624847,82.269859 92.805733,76.566940 96.500488,69.942741 
	C92.439529,69.942741 89.630142,69.767311 86.857925,70.012398 
	C85.337807,70.146797 83.160431,70.543785 82.512405,71.587738 
	C78.513733,78.029442 74.866074,84.689049 71.097633,91.283417 
	C77.157593,94.504372 82.680809,93.414261 86.443962,87.972771 
z" />
	<path fill="#FFFDFB" opacity="1.000000" stroke="none" d="
M70.049881,48.066772 
	C72.901657,43.199818 75.591003,38.661285 78.761063,33.311508 
	C80.420265,35.533588 81.809898,37.062283 82.823242,38.809242 
	C87.234344,46.413830 91.530251,54.085182 95.880104,61.725384 
	C97.627945,64.795341 97.421150,66.834206 93.251053,66.836159 
	C83.779373,66.840591 74.307701,66.836441 64.836021,66.837677 
	C60.713104,66.838219 60.371567,64.888596 62.184727,61.766563 
	C64.767975,57.318546 67.321327,52.853157 70.049881,48.066772 
z" />
	<path fill="#FFFBF7" opacity="1.000000" stroke="none" d="
M86.265137,88.300079 
	C82.680809,93.414261 77.157593,94.504372 71.097633,91.283417 
	C74.866074,84.689049 78.513733,78.029442 82.512405,71.587738 
	C83.160431,70.543785 85.337807,70.146797 86.857925,70.012398 
	C89.630142,69.767311 92.439529,69.942741 96.500488,69.942741 
	C92.805733,76.566940 89.624847,82.269859 86.265137,88.300079 
z" />
</svg>