<?xml version="1.0" encoding="utf-8"?>
<!-- Generator: Adobe Illustrator 28.3.0, SVG Export Plug-In . SVG Version: 6.00 Build 0)  -->
<svg version="1.1" id="Layer_1" xmlns="http://www.w3.org/2000/svg" xmlns:xlink="http://www.w3.org/1999/xlink" x="0px"
	y="0px" viewBox="0 0 254 342" style="enable-background:new 0 0 254 342;" xml:space="preserve">
	<style type="text/css">
		.st0 {
			fill: none;
			stroke: currentColor;
			stroke-width: 2;
		}

		.st1 {
			fill: none;
			stroke: currentColor;
			stroke-width: 2;
		}
	</style>
	<path class="st0" d="M111.22,133.1L39.02,3.6L6.22-55.3c-2.9-5.2-10.2-5.2-13.1,0l-32.9,58.9l0,0l0,0l-39.4,70.7l-32.8,58.9
	c-2.9,5.2,0.7,11.8,6.6,11.8h210.1C110.52,144.9,114.22,138.4,111.22,133.1L111.22,133.1z" />
	<path class="st1" d="M103.23,160.3H35.88c-5.14,0-9.77,2.38-12.34,6.24l-41.13,63.11l0,0l-37.7,57.77
	c-3.43,5.2,0.86,11.58,7.54,11.58H19.6c5.14,0,9.77-2.38,12.34-6.24l41.13-63.11l37.7-57.77C114.2,166.69,110.08,160.3,103.23,160.3
	z" />
	<path class="st0" d="M252.22,389.1l-72.2-129.5l-32.8-58.9c-2.9-5.2-10.2-5.2-13.1,0l-32.9,58.9l0,0l0,0l-39.4,70.7l-32.8,58.9
	c-2.9,5.2,0.7,11.8,6.6,11.8h210.1C251.52,400.9,255.22,394.4,252.22,389.1L252.22,389.1z" />
</svg>