<?xml version="1.0" encoding="utf-8"?>
<svg version="1.1" id="Layer_1" x="0px" y="0px" width="100%" viewBox="129.082 11.411 38.167 58.52"
  enable-background="new 0 0 235 117" xmlns="http://www.w3.org/2000/svg">
  <defs />
  <path fill="#0BD15F" opacity="1.000000" stroke="none"
    d="&#10;M159.962967,34.996429 &#10;&#9;C161.229172,37.318241 162.307938,39.317711 163.761246,42.011429 &#10;&#9;C153.353241,42.011429 143.843094,42.011429 133.048981,42.011429 &#10;&#9;C138.228455,33.061852 142.975082,24.860188 148.410980,15.467532 &#10;&#9;C152.600204,22.547504 156.187866,28.610794 159.962967,34.996429 &#10;z" />
  <path fill="#FFCB98" opacity="1.000000" stroke="none"
    d="&#10;M160.170349,45.101727 &#10;&#9;C161.314468,48.232170 153.737778,62.548431 150.888840,62.911945 &#10;&#9;C148.186615,63.256729 145.405869,62.986092 141.338196,62.986092 &#10;&#9;C145.054062,56.748791 147.693069,51.194649 151.472504,46.573174 &#10;&#9;C152.830643,44.912460 156.935272,45.497837 160.170349,45.101727 &#10;z" />
</svg>