<?xml version="1.0" encoding="UTF-8"?>
<svg id="Layer_1" data-name="Layer 1" xmlns="http://www.w3.org/2000/svg" viewBox="0 0 617.6 196.73">
  <defs>
    <style>
      .cls-1 {
        fill: currentColor;
      }

      .cls-1,
      .cls-2,
      .cls-3 {
        stroke-width: 0px;
      }

      .cls-2 {
        fill: #ffc890;
      }

      .cls-3 {
        fill: #00cf58;
      }
    </style>
  </defs>
  <g>
    <path class="cls-3"
      d="M617.03,102.91l-40.01-69.3-18.19-31.5c-1.62-2.8-5.66-2.8-7.28,0l-18.19,31.5h0,0s-21.83,37.8-21.83,37.8l-18.19,31.5c-1.62,2.8.4,6.3,3.64,6.3h116.4c3.23,0,5.25-3.5,3.64-6.3Z" />
    <path class="cls-2"
      d="M606.51,121.13h-32.43c-2.44,0-4.7,1.3-5.92,3.42l-19.85,34.38h0s-18.19,31.5-18.19,31.5c-1.62,2.8.4,6.3,3.64,6.3h32.43c2.44,0,4.7-1.3,5.92-3.42l19.85-34.38,18.19-31.5c1.62-2.8-.4-6.3-3.64-6.3Z" />
  </g>
  <g>
    <path class="cls-1"
      d="M6.95,68.4c2.14,1.79,4.66,3.12,7.55,3.98,2.89.86,5.97,1.29,9.23,1.29,4.21,0,7.79-.6,10.74-1.81,2.95-1.21,5.34-2.83,7.17-4.86,1.83-2.03,3.17-4.37,4.01-7.01.84-2.64,1.26-5.37,1.26-8.19,0-4.21-.62-7.95-1.87-11.21-1.25-3.26-2.93-6-5.05-8.21-2.12-2.22-4.61-3.89-7.44-5.03-2.84-1.14-5.85-1.7-9.04-1.7-3.55,0-6.78.71-9.67,2.12-2.89,1.41-5.37,3.31-7.42,5.71-2.05,2.4-3.64,5.18-4.75,8.35-1.12,3.17-1.68,6.49-1.68,9.97,0,3.77.62,7.03,1.87,9.78,1.25,2.75,2.94,5.02,5.08,6.81ZM15.6,46.84c.29-1.34.77-2.56,1.43-3.68.66-1.12,1.52-2.04,2.58-2.77,1.06-.73,2.36-1.1,3.9-1.1,1.36,0,2.55.33,3.57.99,1.03.66,1.89,1.52,2.58,2.58.7,1.06,1.23,2.29,1.59,3.68.37,1.39.55,2.8.55,4.23,0,3.33-.73,5.8-2.2,7.39-1.47,1.59-3.42,2.39-5.88,2.39-2.97,0-5.14-.88-6.51-2.64-1.37-1.76-2.06-4.19-2.06-7.31,0-1.17.15-2.43.44-3.76Z" />
    <path class="cls-1"
      d="M8.52,12.83c.7.68,1.49,1.22,2.39,1.62.9.4,1.88.6,2.94.6s1.99-.2,2.88-.6c.9-.4,1.68-.94,2.36-1.62.68-.68,1.22-1.47,1.62-2.39.4-.92.6-1.89.6-2.91s-.2-2-.6-2.91c-.4-.92-.94-1.72-1.62-2.42-.68-.7-1.47-1.24-2.36-1.62-.9-.38-1.86-.58-2.88-.58s-2.04.19-2.94.58c-.9.38-1.69.92-2.39,1.62s-1.24,1.5-1.62,2.42c-.38.92-.58,1.89-.58,2.91s.19,2,.58,2.91c.38.92.92,1.71,1.62,2.39Z" />
    <path class="cls-1"
      d="M27.17,12.83c.68.68,1.47,1.22,2.36,1.62.9.4,1.88.6,2.94.6s2-.2,2.91-.6c.92-.4,1.71-.94,2.39-1.62.68-.68,1.22-1.47,1.62-2.39s.6-1.89.6-2.91-.2-2-.6-2.91c-.4-.92-.94-1.72-1.62-2.42-.68-.7-1.47-1.24-2.39-1.62-.92-.38-1.89-.58-2.91-.58s-2.04.19-2.94.58c-.9.38-1.68.92-2.36,1.62s-1.21,1.5-1.59,2.42c-.38.92-.58,1.89-.58,2.91s.19,2,.58,2.91c.38.92.92,1.71,1.59,2.39Z" />
    <path class="cls-1"
      d="M262.38,84.56c-.68-.7-1.47-1.24-2.36-1.62-.9-.38-1.86-.58-2.88-.58s-2.04.19-2.94.58c-.9.38-1.69.92-2.39,1.62-.7.7-1.24,1.5-1.62,2.42-.38.92-.58,1.89-.58,2.91s.19,2,.58,2.91c.38.92.92,1.71,1.62,2.39.7.68,1.49,1.22,2.39,1.62.9.4,1.88.6,2.94.6s1.99-.2,2.88-.6c.9-.4,1.68-.94,2.36-1.62.68-.68,1.22-1.47,1.62-2.39.4-.92.6-1.89.6-2.91s-.2-2-.6-2.91c-.4-.92-.94-1.72-1.62-2.42Z" />
    <path class="cls-1"
      d="M259.74,73.07c1.59-.11,3.13-.37,4.62-.77,1.48-.4,2.87-1,4.15-1.79,1.28-.79,2.38-1.88,3.3-3.27.77,1.28,1.67,2.32,2.69,3.1,1.03.79,2.12,1.39,3.27,1.81,1.15.42,2.34.71,3.54.85,1.21.15,2.4.22,3.57.22h4.94c2.6,0,4.95-.06,7.06-.19,2.11-.13,4.01-.4,5.71-.82,1.7-.42,3.22-1.03,4.56-1.84,1.34-.81,2.54-1.89,3.6-3.24.59.77,1.36,1.52,2.31,2.25.95.73,2.09,1.38,3.41,1.95,1.32.57,2.8,1.03,4.45,1.37,1.65.35,3.48.52,5.49.52h60.99v-20.71c0-4.29-.57-8.15-1.7-11.59-1.14-3.44-2.78-6.38-4.94-8.82-2.16-2.44-4.82-4.31-7.97-5.63-3.15-1.32-6.72-1.98-10.71-1.98-4.8,0-9.25.96-13.35,2.88-4.1,1.92-7.84,4.51-11.21,7.77-3.37,3.26-6.34,7.02-8.9,11.29-2.56,4.27-4.71,8.76-6.43,13.49-2.97,0-5.11-.71-6.43-2.14-1.32-1.43-1.98-3.41-1.98-5.93v-19.72h-14.72v22.2c0,1.28-.16,2.3-.47,3.05-.31.75-.82,1.32-1.54,1.7-.71.38-1.65.62-2.8.71s-2.55.14-4.2.14h-5.16c-1.9,0-3.51-.15-4.81-.44-1.3-.29-2.34-.76-3.13-1.4-.79-.64-1.36-1.47-1.7-2.5-.35-1.03-.52-2.27-.52-3.74v-24.78h-15.05v26.1c0,1.43-.12,2.59-.36,3.49-.24.9-.64,1.58-1.21,2.06-.57.48-1.3.8-2.2.96-.9.16-2.01.25-3.32.25H91.53c-1.06,0-2.1-.14-3.1-.41s-1.91-.72-2.72-1.35c-.81-.62-1.46-1.46-1.95-2.5-.49-1.04-.74-2.32-.74-3.82v-24.78h-15.16v41.92c0,3.04-.19,5.51-.58,7.42-.38,1.9-1,3.38-1.84,4.42-.84,1.04-1.94,1.75-3.3,2.12-1.36.37-2.99.55-4.89.55h-3.19v14.07h3.57c4.4,0,8.19-.49,11.37-1.46,3.19-.97,5.82-2.55,7.91-4.75,2.09-2.2,3.63-5.07,4.62-8.63.99-3.55,1.48-7.91,1.48-13.08.66.81,1.38,1.45,2.17,1.92s1.58.83,2.36,1.07c.79.24,1.53.39,2.23.47.7.07,1.28.11,1.76.11h163.51c1.54,0,3.1-.05,4.7-.16ZM341.83,51.45c1.7-2.66,3.54-4.97,5.52-6.95,1.98-1.98,4.09-3.54,6.35-4.7,2.25-1.15,4.61-1.73,7.06-1.73,2.31,0,4.2.49,5.69,1.46s2.66,2.24,3.52,3.82c.86,1.58,1.46,3.33,1.79,5.27.33,1.94.49,3.88.49,5.82v5.49h-35c1.36-3,2.88-5.83,4.59-8.49Z" />
    <path class="cls-1"
      d="M281.06,84.56c-.68-.7-1.47-1.24-2.39-1.62-.92-.38-1.89-.58-2.91-.58s-2.04.19-2.94.58c-.9.38-1.68.92-2.36,1.62s-1.21,1.5-1.59,2.42c-.38.92-.58,1.89-.58,2.91s.19,2,.58,2.91c.38.92.92,1.71,1.59,2.39.68.68,1.47,1.22,2.36,1.62.9.4,1.88.6,2.94.6s2-.2,2.91-.6c.92-.4,1.71-.94,2.39-1.62.68-.68,1.22-1.47,1.62-2.39.4-.92.6-1.89.6-2.91s-.2-2-.6-2.91-.94-1.72-1.62-2.42Z" />
    <path class="cls-1"
      d="M405.86,67.63c1.98,1.9,4.31,3.31,7.01,4.23s5.6,1.37,8.71,1.37c3.3,0,6.14-.33,8.52-.99-.26,1.39-.64,2.76-1.15,4.09-.51,1.34-1.35,2.54-2.5,3.6s-2.74,1.92-4.75,2.58c-2.01.66-4.65.99-7.91.99h-8.63v14.07h9.56c5.68,0,10.49-.7,14.45-2.09,3.96-1.39,7.17-3.42,9.64-6.07,2.47-2.66,4.27-5.92,5.38-9.81,1.12-3.88,1.68-8.33,1.68-13.35v-14.5c0-3.74-.38-7.25-1.15-10.55-.77-3.3-2.04-6.18-3.82-8.65-1.78-2.47-4.12-4.43-7.03-5.88-2.91-1.45-6.49-2.17-10.74-2.17-3.85,0-7.24.71-10.19,2.14-2.95,1.43-5.41,3.33-7.39,5.71-1.98,2.38-3.48,5.13-4.51,8.24-1.03,3.11-1.54,6.36-1.54,9.72,0,3.92.57,7.31,1.7,10.16,1.14,2.86,2.69,5.24,4.67,7.14ZM414.84,45c.31-1.47.8-2.71,1.46-3.74.66-1.03,1.51-1.82,2.55-2.39,1.04-.57,2.32-.85,3.82-.85s2.77.3,3.79.91c1.03.6,1.85,1.47,2.47,2.58.62,1.12,1.07,2.47,1.35,4.07.27,1.59.41,3.38.41,5.36v7.69c-1.94,1.1-4.51,1.65-7.69,1.65-2.86,0-5.01-.93-6.46-2.8-1.45-1.87-2.17-4.41-2.17-7.64,0-1.76.16-3.37.47-4.84Z" />
    <polygon class="cls-1"
      points="63.13 176.35 62.91 176.35 53.02 136.95 37.47 136.95 27.8 176.46 27.58 176.46 16.87 136.95 0 136.95 18.46 196.73 35 196.73 44.89 156.07 45.16 156.07 55.49 196.73 71.87 196.73 90.27 136.95 73.84 136.95 63.13 176.35" />
    <path class="cls-1"
      d="M149.33,186.29c-.07-1.17-.11-2.34-.11-3.52v-31.21c0-5.13-2.1-9.1-6.29-11.92-4.19-2.82-10.59-4.23-19.2-4.23s-14.72,1.65-19.56,4.94c-4.8,3.3-7.42,8.13-7.86,14.5h15.99c.29-3.08,1.31-5.31,3.05-6.7,1.74-1.39,4.28-2.09,7.61-2.09,1.9,0,3.52.16,4.84.49,1.32.33,2.38.82,3.19,1.46.81.64,1.38,1.45,1.73,2.42.35.97.52,2.12.52,3.43,0,2.34-.99,3.97-2.97,4.89-.99.48-2.5.9-4.53,1.26-2.03.37-4.61.7-7.72.99-8.94.99-15.07,2.93-18.41,5.82-3.37,2.86-5.05,7-5.05,12.42s1.79,9.93,5.38,12.97c3.55,3,8.35,4.51,14.39,4.51,4.21,0,7.97-.61,11.26-1.84,3.3-1.23,6.06-2.99,8.3-5.3.18,1.94.57,3.79,1.15,5.55h16.21c-.73-1.25-1.26-3.02-1.59-5.33-.15-1.17-.26-2.34-.33-3.52ZM133.24,172.89c0,4.32-1.08,7.59-3.24,9.81-2.16,2.22-5.38,3.32-9.67,3.32-3.44,0-5.94-.66-7.5-1.98-1.56-1.32-2.34-3.13-2.34-5.44,0-2.53.84-4.5,2.53-5.91,1.68-1.41,4.36-2.35,8.02-2.83,2.05-.29,3.77-.56,5.16-.8,1.39-.24,2.47-.45,3.24-.63,1.57-.37,2.84-.95,3.79-1.76v6.21Z" />
    <path class="cls-1"
      d="M208.07,165.85c-3.08-2.75-9.07-4.96-17.97-6.65-5.6-1.03-9.34-2.12-11.21-3.3-1.83-1.17-2.75-2.66-2.75-4.45s.7-3.1,2.09-4.01c1.39-.92,3.64-1.37,6.76-1.37,3.44,0,6.07.62,7.88,1.87,1.81,1.25,2.83,3.24,3.05,5.99h15.22c-.59-6.12-3.02-10.73-7.31-13.85-4.29-3.11-10.4-4.67-18.35-4.67s-14.48,1.56-18.82,4.67c-4.34,3.11-6.51,7.77-6.51,13.96,0,2.09.36,3.96,1.07,5.6s1.84,3.1,3.38,4.37c1.54,1.26,3.5,2.35,5.88,3.27,2.38.92,5.24,1.7,8.57,2.36,3.41.7,6.25,1.38,8.54,2.06,2.29.68,4.07,1.33,5.36,1.95,2.53,1.28,3.79,2.93,3.79,4.94,0,1.14-.26,2.16-.77,3.08-.51.92-1.23,1.69-2.14,2.34-.92.64-2.02,1.14-3.32,1.48-1.3.35-2.72.52-4.26.52-3.48,0-6.41-.86-8.79-2.58-2.31-1.68-3.46-4.08-3.46-7.2h-15.22c.33,6.78,2.95,11.9,7.86,15.38,4.94,3.41,11.45,5.11,19.5,5.11s14.52-1.72,19.28-5.16c4.83-3.44,7.25-8.46,7.25-15.05,0-4.4-1.54-7.95-4.62-10.66Z" />
    <path class="cls-1"
      d="M248.95,135.42c-8.72,0-15.86,2.95-21.43,8.85-5.53,5.86-8.3,13.15-8.3,21.87s2.71,16.45,8.13,22.09c5.46,5.68,12.66,8.52,21.59,8.52,7.03,0,12.78-1.61,17.25-4.84,4.47-3.22,7.8-8.15,10-14.78h-14.07c-.66,2.12-2.22,3.92-4.67,5.38-2.45,1.47-5.13,2.2-8.02,2.2-4.51,0-7.95-1.2-10.33-3.6-2.38-2.4-3.68-6.13-3.9-11.18h41.98l.11-2.97c0-9.19-2.58-16.74-7.75-22.64-5.13-5.93-12-8.9-20.6-8.9ZM235.21,159.81c.37-3.88,1.68-6.91,3.96-9.09,2.27-2.18,5.35-3.27,9.23-3.27s6.66.99,8.65,2.97c2,1.98,3.38,5.11,4.15,9.4h-25.99Z" />
    <path class="cls-1"
      d="M313.56,135.42c-8.72,0-15.86,2.95-21.43,8.85-5.53,5.86-8.3,13.15-8.3,21.87s2.71,16.45,8.13,22.09c5.46,5.68,12.66,8.52,21.59,8.52,7.03,0,12.78-1.61,17.25-4.84,4.47-3.22,7.8-8.15,10-14.78h-14.07c-.66,2.12-2.22,3.92-4.67,5.38-2.45,1.47-5.13,2.2-8.02,2.2-4.51,0-7.95-1.2-10.33-3.6-2.38-2.4-3.68-6.13-3.9-11.18h41.98l.11-2.97c0-9.19-2.58-16.74-7.75-22.64-5.13-5.93-12-8.9-20.6-8.9ZM299.82,159.81c.37-3.88,1.68-6.91,3.96-9.09,2.27-2.18,5.35-3.27,9.23-3.27s6.66.99,8.65,2.97c2,1.98,3.38,5.11,4.15,9.4h-25.99Z" />
    <path class="cls-1"
      d="M374.21,138.77c-3.3,2.16-5.81,5.16-7.53,9.01h-.22v-10.82h-15.16v59.78h15.93v-28.3c0-5.57,1.28-9.98,3.85-13.24,2.56-3.3,6.56-4.94,11.98-4.94,1.17,0,2.19.05,3.05.14.86.09,1.75.23,2.66.41v-14.83c-.99-.37-2.18-.55-3.57-.55-3.99,0-7.66,1.12-10.99,3.35Z" />
    <path class="cls-1"
      d="M446.02,189.81c-.15-1.17-.26-2.34-.33-3.52-.07-1.17-.11-2.34-.11-3.52v-31.21c0-5.13-2.1-9.1-6.29-11.92-4.19-2.82-10.59-4.23-19.2-4.23s-14.72,1.65-19.56,4.94c-4.8,3.3-7.42,8.13-7.86,14.5h15.99c.29-3.08,1.31-5.31,3.05-6.7,1.74-1.39,4.28-2.09,7.61-2.09,1.9,0,3.52.16,4.83.49,1.32.33,2.38.82,3.19,1.46.81.64,1.38,1.45,1.73,2.42.35.97.52,2.12.52,3.43,0,2.34-.99,3.97-2.97,4.89-.99.48-2.5.9-4.53,1.26-2.03.37-4.61.7-7.72.99-8.94.99-15.07,2.93-18.41,5.82-3.37,2.86-5.05,7-5.05,12.42s1.79,9.93,5.38,12.97c3.55,3,8.35,4.51,14.39,4.51,4.21,0,7.97-.61,11.26-1.84,3.3-1.23,6.06-2.99,8.3-5.3.18,1.94.57,3.79,1.15,5.55h16.21c-.73-1.25-1.26-3.02-1.59-5.33ZM429.6,172.89c0,4.32-1.08,7.59-3.24,9.81-2.16,2.22-5.38,3.32-9.67,3.32-3.44,0-5.94-.66-7.5-1.98-1.56-1.32-2.34-3.13-2.34-5.44,0-2.53.84-4.5,2.53-5.91,1.68-1.41,4.36-2.35,8.02-2.83,2.05-.29,3.77-.56,5.16-.8,1.39-.24,2.47-.45,3.24-.63,1.57-.37,2.84-.95,3.79-1.76v6.21Z" />
  </g>
</svg>