<?xml version="1.0" encoding="utf-8"?>
<!-- Generator: Adobe Illustrator 28.3.0, SVG Export Plug-In . SVG Version: 6.00 Build 0)  -->
<svg version="1.1" xmlns="http://www.w3.org/2000/svg" xmlns:xlink="http://www.w3.org/1999/xlink" x="0px" y="0px"
	 viewBox="0 0 155.5 253" style="enable-background:new 0 0 155.5 253;" xml:space="preserve">
<style type="text/css">
	.st0{fill:#00CF58;}
	.st1{fill:#FFC890;}
</style>
<g id="Layer_1">
	<g>
		<g>
			<path class="st0" d="M137.7,118.6l-40-69.3L79.5,17.8c-1.6-2.8-5.7-2.8-7.3,0L54.1,49.3h0l0,0L32.3,87.1l-18.2,31.5
				c-1.6,2.8,0.4,6.3,3.6,6.3h21.8h14.6h80C137.3,124.9,139.4,121.4,137.7,118.6z"/>
			<path class="st1" d="M127.2,136.8h-21.8H94.8c-2.4,0-4.7,1.3-5.9,3.4L69,174.6v0l-18.2,31.5c-1.6,2.8,0.4,6.3,3.6,6.3h21.8
				l10.6,0c2.4,0,4.7-1.3,5.9-3.4l19.9-34.4l18.2-31.5C132.5,140.3,130.5,136.8,127.2,136.8z"/>
		</g>
	</g>
</g>
<g id="Dimensions">
</g>
</svg>
